
<svg xmlns="http://www.w3.org/2000/svg" version="1.1" xmlns:xlink="http://www.w3.org/1999/xlink" preserveAspectRatio="none" x="0px" y="0px" width="100px" height="100px" viewBox="0 0 100 100">
<defs>
<g id="Layer3_0_FILL">
<path fill="#FFFFFF" stroke="none" d="
M 19.5 56
L 11.4 56
Q 13.184375 68.3373046875 22.4 77.55 33.8447265625 88.9982421875 50 89 66.1552734375 88.9982421875 77.55 77.55 86.815625 68.3373046875 88.55 56
L 80.45 56
Q 78.8037109375 65.04375 71.9 71.9 62.8447265625 81.0017578125 50 81 37.1552734375 81.0017578125 28.05 71.9 21.1962890625 65.04375 19.5 56
M 71.9 28.1
Q 78.7947265625 34.997265625 80.45 44
L 88.55 44
Q 86.8107421875 31.7078125 77.55 22.45 66.1560546875 10.9970703125 50 11 33.84375 10.9970703125 22.4 22.45 13.1892578125 31.7078125 11.4 44
L 19.5 44
Q 21.2052734375 34.997265625 28.05 28.1 37.1560546875 19.003125 50 19 62.84375 19.003125 71.9 28.1 Z"/>
</g>

<g id="Layer1_0_FILL">
<path fill="#FFFFFF" stroke="none" d="
M 38.85 55.65
L 7 55.65 7 87.5 7.15 87.5 38.85 55.8 38.85 55.65
M 93 44.1
L 93 12.25 92.85 12.25 61.15 43.95 61.15 44.1 93 44.1 Z"/>
</g>
</defs>

<g transform="matrix( 1, 0, 0, 1, 0,0) ">
<use xlink:href="#Layer3_0_FILL"/>
</g>

<g transform="matrix( 1, 0, 0, 1, 0,0) ">
<use xlink:href="#Layer1_0_FILL"/>
</g>
</svg>
