
<svg xmlns="http://www.w3.org/2000/svg" version="1.1" xmlns:xlink="http://www.w3.org/1999/xlink" preserveAspectRatio="none" x="0px" y="0px" width="100px" height="100px" viewBox="0 0 100 100">
<defs>
<g id="Layer0_0_FILL">
<path fill="#FFFFFF" fill-opacity="0.2980392156862745" stroke="none" d="
M 92.1 43.4
Q 92.1 28.2 81.35 17.45 70.6 6.7 55.4 6.7 40.2 6.7 29.45 17.45 18.7 28.2 18.7 43.4 18.7 46.3 19.1 49.05 20.55 47.65 22.05 46.45 29.2 40.9 40.5 39.4 43.55 38.95 49.55 38.45 54.8 37.9 58.1 36.95 67.25 34.35 72.1 25.65 72.35 37.3 70.7 45.1 68.75 54.3 63.65 61.25 57 70.3 42.65 77.95 48.6 80.1 55.4 80.1 70.6 80.1 81.35 69.35 92.1 58.6 92.1 43.4 Z"/>
</g>

<path id="Layer0_0_1_STROKES" stroke="#FFFFFF" stroke-width="5" stroke-linejoin="round" stroke-linecap="round" fill="none" d="
M 19.1 49.05
Q 18.7 46.3 18.7 43.4 18.7 28.2 29.45 17.45 40.2 6.7 55.4 6.7 70.6 6.7 81.35 17.45 92.1 28.2 92.1 43.4 92.1 58.6 81.35 69.35 70.6 80.1 55.4 80.1 48.6 80.1 42.65 77.95 33.5 82.8 21.2 87.1
L 5.75 71.65
Q 11.25 56.8 19.1 49.05 20.55 47.65 22.05 46.45 29.2 40.9 40.5 39.4 43.55 38.95 49.55 38.45 54.8 37.9 58.1 36.95 67.25 34.35 72.1 25.65 72.35 37.3 70.7 45.1 68.75 54.3 63.65 61.25 57 70.3 42.65 77.95"/>
</defs>

<g transform="matrix( 1, 0, 0, 1, 0,0) ">
<use xlink:href="#Layer0_0_FILL"/>

<use xlink:href="#Layer0_0_1_STROKES"/>
</g>
</svg>
