
<svg xmlns="http://www.w3.org/2000/svg" version="1.1" xmlns:xlink="http://www.w3.org/1999/xlink" preserveAspectRatio="none" x="0px" y="0px" width="100px" height="100px" viewBox="0 0 100 100">
<defs>
<g id="Layer0_0_FILL">
<path fill="#FFFFFF" stroke="none" d="
M 51.5 14
Q 50.15 13.75 49 14.5
L 15.6 36.95
Q 12.75 38.85 10.9 41.7 9.1 44.4 8.5 47.65 7.85 50.85 8.45 54.05 9.1 57.4 11 60.2
L 18.6 71.5
Q 20.4 74.2 23.1 76 25.7 77.75 28.75 78.45 32.15 79.3 35.6 78.75 39.15 78.15 42.15 76.1
L 75.25 53.6
Q 76.4 52.85 76.65 51.5 76.95 50.1 76.15 48.95
L 53.65 15.45
Q 52.85 14.3 51.5 14
M 50.4 19.6
L 69.6 48.15 13.5 48.15
Q 13.95 46.15 15.05 44.5
L 15.1 44.45
Q 16.4 42.45 18.4 41.1
L 50.4 19.6
M 29.9 73.6
Q 27.75 73.1 25.9 71.85 24 70.6 22.75 68.75
L 22.75 68.7 15.15 57.4
Q 13.95 55.65 13.5 53.65
L 66.35 53.65 39.35 72
Q 37.25 73.4 34.8 73.85
L 34.85 73.8
Q 32.4 74.2 30 73.6
L 29.9 73.6
M 83.6 54.2
Q 82.75 54.2 82 54.6 81.25 55 80.8 55.7 79.75 57.35 78.35 59.75 75.55 64.5 73.95 68.2 73 70.5 72.45 72.45 71.9 74.5 71.9 76 71.9 78.35 72.8 80.55 73.7 82.65 75.3 84.25 76.95 85.9 79.05 86.8 81.25 87.7 83.6 87.7 86 87.7 88.2 86.8 90.3 85.9 91.9 84.25 93.55 82.65 94.4 80.55 95.35 78.35 95.35 76 95.35 74.5 94.8 72.45 94.25 70.5 93.25 68.2 91.65 64.5 88.9 59.75
L 86.4 55.7
Q 85.95 55 85.2 54.6 84.45 54.2 83.6 54.2
M 82.65 62.3
L 82.7 62.3
Q 83.15 61.45 83.6 60.7
L 84.65 62.4
Q 87.15 66.75 88.65 70.2
L 88.7 70.2
Q 89.55 72.15 90 73.8
L 90 73.75
Q 90.3 75.05 90.35 76 90.35 77.35 89.8 78.6 89.8 78.65 89.8 78.7 89.3 79.8 88.45 80.65 88.35 80.7 88.3 80.8 87.4 81.7 86.25 82.2 84.95 82.7 83.6 82.7 82.25 82.7 81.05 82.2 79.8 81.7 78.85 80.75 77.95 79.8 77.45 78.65
L 77.4 78.6
Q 76.9 77.35 76.9 76 76.95 75.05 77.3 73.75
L 77.25 73.8
Q 77.75 72.15 78.55 70.2 80.05 66.75 82.65 62.3 Z"/>
</g>
</defs>

<g transform="matrix( 1, 0, 0, 1, 0,0) ">
<use xlink:href="#Layer0_0_FILL"/>
</g>
</svg>
