
<svg xmlns="http://www.w3.org/2000/svg" version="1.1" xmlns:xlink="http://www.w3.org/1999/xlink" preserveAspectRatio="none" x="0px" y="0px" width="100px" height="100px" viewBox="0 0 100 100">
<defs>
<g id="Layer0_0_FILL">
<path fill="#FFFFFF" stroke="none" d="
M 53.3 39
Q 52.5 39 51.9 39.55 51.35 40.2 51.35 41 51.35 41.75 51.9 42.35 52.5 42.95 53.3 42.95 54.1 42.95 54.65 42.35 55.3 41.75 55.3 41 55.3 40.2 54.65 39.55 54.1 39 53.3 39 Z"/>

<path fill="#FFFFFF" fill-opacity="0.2" stroke="none" d="
M 86.35 91.5
Q 88.6 88.55 86.9 84.55
L 70.6 57.45
Q 64.05 55.4 59 57.05 57.3 57.65 51.25 61.4 46.6 64.25 42.3 64.35 36.15 64.4 27.25 59.7
L 12.25 84.55
Q 10.6 88.55 12.85 91.5 15 94.25 19.4 94.55 19.65 94.55 19.95 94.55
L 79.3 94.55
Q 79.5 94.55 79.8 94.55 84.2 94.25 86.35 91.5
M 35.95 76.6
Q 34.8 75.45 34.8 73.9 34.8 72.25 35.95 71.15 37.05 70 38.7 70 40.25 70 41.4 71.15 42.55 72.25 42.55 73.9 42.55 75.45 41.4 76.6 40.25 77.75 38.7 77.75 37.05 77.75 35.95 76.6
M 65.25 83.7
Q 64.1 82.6 64.1 81 64.1 79.35 65.25 78.25 66.35 77.1 68 77.1 69.55 77.1 70.7 78.25 71.85 79.35 71.85 81 71.85 82.6 70.7 83.7 69.55 84.85 68 84.85 66.35 84.85 65.25 83.7 Z"/>
</g>

<path id="Layer0_0_1_STROKES" stroke="#FFFFFF" stroke-width="3" stroke-linejoin="round" stroke-linecap="round" fill="none" d="
M 19.95 94.55
L 79.3 94.55
Q 79.5 94.55 79.8 94.55 84.2 94.25 86.35 91.5 88.6 88.55 86.9 84.55
L 70.6 57.45
Q 64.05 55.4 59 57.05 57.3 57.65 51.25 61.4 46.6 64.25 42.3 64.35 36.15 64.4 27.25 59.7
L 12.25 84.55
Q 10.6 88.55 12.85 91.5 15 94.25 19.4 94.55 19.65 94.55 19.95 94.55 Z
M 42.55 17.25
L 38.35 17.25
Q 36.05 17.25 34.35 15.6 32.7 13.95 32.7 11.6
L 32.7 10.95
Q 32.7 8.65 34.35 6.95 36.05 5.3 38.35 5.3
L 60.25 5.3
Q 62.55 5.3 64.2 6.95 65.9 8.65 65.9 10.95
L 65.9 11.6
Q 65.9 13.95 64.2 15.6 62.55 17.25 60.25 17.25
L 56.4 17.25
M 70.6 57.45
L 64.65 47.6
Q 61 41.95 60.75 35.6
L 60.75 18.85
M 53.05 24.15
L 53.05 33.75
M 27.25 59.7
L 34.5 47.6
Q 38.2 41.95 38.4 35.6
L 38.4 18.85
M 42.55 73.9
Q 42.55 75.45 41.4 76.6 40.25 77.75 38.7 77.75 37.05 77.75 35.95 76.6 34.8 75.45 34.8 73.9 34.8 72.25 35.95 71.15 37.05 70 38.7 70 40.25 70 41.4 71.15 42.55 72.25 42.55 73.9 Z
M 71.85 81
Q 71.85 82.6 70.7 83.7 69.55 84.85 68 84.85 66.35 84.85 65.25 83.7 64.1 82.6 64.1 81 64.1 79.35 65.25 78.25 66.35 77.1 68 77.1 69.55 77.1 70.7 78.25 71.85 79.35 71.85 81 Z"/>
</defs>

<g transform="matrix( 1, 0, 0, 1, 0,0) ">
<use xlink:href="#Layer0_0_FILL"/>

<use xlink:href="#Layer0_0_1_STROKES"/>
</g>
</svg>
