
<svg xmlns="http://www.w3.org/2000/svg" version="1.1" xmlns:xlink="http://www.w3.org/1999/xlink" preserveAspectRatio="none" x="0px" y="0px" width="100px" height="100px" viewBox="0 0 100 100">
<defs/>

<g id="GIF">
<g>
<g>
<g>
<path fill="#249F63" stroke="none" d="
M 85.6 94
Q 87.1 94 88.5 93.4 89.8 92.85 90.85 91.85 91.85 90.8 92.4 89.5 93 88.1 93 86.65
L 93 30.05 68.8 5.7 23.1 5.7
Q 21.6 5.7 20.25 6.3 18.9 6.85 17.9 7.85 16.85 8.9 16.3 10.2 15.75 11.55 15.75 13.05
L 15.75 38.8 8.4 38.8
Q 6.85 38.8 5.8 39.9 4.7 40.95 4.7 42.5
L 4.7 73.75
Q 4.7 75.25 5.8 76.35 6.85 77.45 8.4 77.45
L 15.75 77.45 15.75 86.65
Q 15.75 88.1 16.3 89.5 16.85 90.8 17.9 91.85 18.9 92.85 20.25 93.4 21.6 94 23.1 94
L 85.6 94
M 86.6 31.45
L 87.45 32.35 87.45 86.65
Q 87.45 87.4 86.9 87.9 86.4 88.45 85.6 88.45
L 23.1 88.45
Q 22.35 88.45 21.8 87.9 21.25 87.4 21.25 86.65
L 21.25 77.45 76.45 77.45
Q 77.95 77.45 79.05 76.35 80.1 75.25 80.1 73.75
L 80.1 42.5
Q 80.1 40.95 79.05 39.9 77.95 38.8 76.45 38.8
L 21.25 38.8 21.25 13.05
Q 21.25 12.3 21.8 11.75 22.35 11.2 23.1 11.2
L 66.5 11.2 67.25 11.95 67.25 23
Q 67.25 24.7 67.9 26.3 68.55 27.8 69.7 29 70.9 30.15 72.4 30.8 73.95 31.45 75.7 31.45
L 86.6 31.45
M 43.4 48.15
L 47.4 48.15 47.4 67.3 43.4 67.3 43.4 48.15
M 51.1 48.15
L 64.75 48.15 64.75 51.55 55.05 51.55 55.05 55.95 63.55 55.95 63.55 59.25 55.05 59.25 55.05 67.3 51.1 67.3 51.1 48.15
M 27.8 48.3
Q 29.4642578125 47.65 31.5 47.65 35.15 47.65 37.35 49.5 39.3412109375 51.1744140625 39.8 53.55 39.866796875 53.8390625 39.9 54.1
L 35.95 54.1
Q 35.5 52.15 33.75 51.4 32.75 50.95 31.55 50.95 30.85390625 50.95 30.2 51.1 28.7705078125 51.468359375 27.75 52.7 27.1759765625 53.3697265625 26.8 54.3 26.25 55.789453125 26.25 57.95 26.25 58.092578125 26.25 58.2 26.315234375 61.5111328125 27.85 62.95 29.45 64.4 31.55 64.4 32.1939453125 64.4 32.75 64.25 33.9685546875 64.0296875 34.85 63.25 36.1 62.1 36.4 60.2
L 32 60.2 32 57 39.95 57 39.95 67.3 37.3 67.3 36.9 64.9
Q 36.71640625 65.115625 36.55 65.3 36.25234375 65.678515625 35.85 66 35.3265625 66.5087890625 34.85 66.8 33.25 67.8 30.95 67.8 30.094921875 67.8 29.3 67.65 26.5669921875 67.211328125 24.7 65.15 23.576171875 63.9822265625 22.95 62.4 22.15 60.4728515625 22.15 57.9 22.15 53.86484375 24.05 51.2 24.362890625 50.8203125 24.7 50.45 26.03984375 49.0072265625 27.8 48.3 Z"/>
</g>
</g>
</g>
</g>

<g id="Layer_2"/>
</svg>
