
<svg xmlns="http://www.w3.org/2000/svg" version="1.1" xmlns:xlink="http://www.w3.org/1999/xlink" preserveAspectRatio="none" x="0px" y="0px" width="100px" height="100px" viewBox="0 0 100 100">
<defs>
<path id="Layer1_0_1_STROKES" stroke="#FFFFFF" stroke-width="4" stroke-linejoin="round" stroke-linecap="round" fill="none" d="
M 29.65 19.15
Q 29.65 16.8 31.3 15.05 33 13.45 35.35 13.45 37.7 13.45 39.35 15.05 40.8 16.5 41.05 18.4
L 45.5 47.65 46.7 13.1
Q 46.7 12.9 46.7 12.7 46.7 12.35 46.75 12 46.95 10.25 48.2 8.9 49.75 7.45 52 7.45 54.3 7.45 55.75 8.9 57.35 10.55 57.35 12.7
L 57.35 44.65 62.05 18.35
Q 62.05 18.15 62.05 17.95 62.35 16.6 63.35 15.6 64.7 14.25 66.6 14.25 68.5 14.25 69.85 15.6 71.2 16.95 71.2 18.85 71.2 19.4 71.1 20.05
L 67.95 52.65 77.2 29.8
Q 77.25 29.75 77.25 29.65 77.55 29 78.1 28.45 79.35 27.3 81.05 27.3 82.8 27.3 83.95 28.45 85.25 29.75 85.25 31.45 85.25 33.25 84.9 34.9 84.9 35 81.6 43.6 78.55 51.55 78.1 56.15 76.35 72.7 72.95 80.25 67.75 91.35 56.45 92.25 48.5 92.9 40.45 87.9 30.75 81.95 17.45 66.1 15.45 63.65 15.45 61.25 15.45 58.35 17.45 56.25 19.55 54.25 22.45 54.25 25.15 54.25 27.05 56 27.15 56.05 27.3 56.25 27.7 56.6 28.05 57.05
L 35.45 65.3 29.75 20.05 29.75 19.95
Q 29.65 19.6 29.65 19.15 Z
M 46.7 13.1
L 46.75 12
M 28.05 57.05
L 27.05 56"/>
</defs>

<g transform="matrix( 1, 0, 0, 1, 0,0) ">
<use xlink:href="#Layer1_0_1_STROKES"/>
</g>
</svg>
