
<svg xmlns="http://www.w3.org/2000/svg" version="1.1" xmlns:xlink="http://www.w3.org/1999/xlink" preserveAspectRatio="none" x="0px" y="0px" width="100px" height="100px" viewBox="0 0 100 100">
<defs/>

<g id="JPEG">
<g>
<g>
<g>
<path fill="#0099CC" stroke="none" d="
M 92.4 89.5
Q 93 88.1 93 86.65
L 93 30.05 68.8 5.7 23.1 5.7
Q 21.6 5.7 20.25 6.3 18.9 6.85 17.9 7.85 16.85 8.9 16.3 10.2 15.75 11.55 15.75 13.05
L 15.75 38.8 8.4 38.8
Q 6.85 38.8 5.8 39.9 4.7 40.95 4.7 42.5
L 4.7 73.75
Q 4.7 75.25 5.8 76.35 6.85 77.45 8.4 77.45
L 15.75 77.45 15.75 86.65
Q 15.75 88.1 16.3 89.5 16.85 90.8 17.9 91.85 18.9 92.85 20.25 93.4 21.6 94 23.1 94
L 85.6 94
Q 87.1 94 88.5 93.4 89.8 92.85 90.85 91.85 91.85 90.8 92.4 89.5
M 86.6 31.45
L 87.45 32.35 87.45 86.65
Q 87.45 87.4 86.9 87.9 86.4 88.45 85.6 88.45
L 23.1 88.45
Q 22.35 88.45 21.8 87.9 21.25 87.4 21.25 86.65
L 21.25 77.45 76.45 77.45
Q 77.95 77.45 79.05 76.35 80.1 75.25 80.1 73.75
L 80.1 42.5
Q 80.1 40.95 79.05 39.9 77.95 38.8 76.45 38.8
L 21.25 38.8 21.25 13.05
Q 21.25 12.3 21.8 11.75 22.35 11.2 23.1 11.2
L 66.5 11.2 67.25 11.95 67.25 23
Q 67.25 24.7 67.9 26.3 68.55 27.8 69.7 29 70.9 30.15 72.4 30.8 73.95 31.45 75.7 31.45
L 86.6 31.45
M 16.65 48.15
L 20.65 48.15 20.65 61.5
Q 20.65 63.9 19.8 65.35 18.4 67.75 14.75 67.75 11.15 67.75 9.9 65.8 8.65 63.85 8.65 60.5
L 8.65 60.05 12.4 60.05 12.4 60.5
Q 12.45 62.7 12.85 63.6 13.3 64.5 14.65 64.5 15.95 64.5 16.4 63.5 16.65 62.95 16.65 61.55
L 16.65 48.15
M 23.65 48.15
L 31.9 48.15
Q 34.75 48.15 36.45 49.6 38.1 51.1 38.1 54.2 38.1 57.6 36.45 59 34.75 60.4 31.65 60.4
L 27.65 60.4 27.65 67.3 23.65 67.3 23.65 48.15
M 54.25 51.55
L 44.1 51.55 44.1 55.6 53.4 55.6 53.4 58.95 44.1 58.95 44.1 63.85 54.7 63.85 54.7 67.3 40.2 67.3 40.2 48.15 54.25 48.15 54.25 51.55
M 69.4 54.1
Q 68.95 52.15 67.2 51.4 66.2 50.95 65 50.95 62.65 50.95 61.2 52.7 59.7 54.45 59.7 57.95 59.7 61.45 61.3 62.95 62.9 64.4 65 64.4 67 64.4 68.3 63.25 69.55 62.1 69.85 60.2
L 65.45 60.2 65.45 57 73.4 57 73.4 67.3 70.75 67.3 70.35 64.9
Q 69.2 66.25 68.3 66.8 66.7 67.8 64.4 67.8 60.55 67.8 58.15 65.15 55.6 62.5 55.6 57.9 55.6 53.25 58.15 50.45 60.75 47.65 64.95 47.65 68.6 47.65 70.8 49.5 73 51.35 73.35 54.1
L 69.4 54.1
M 33.4 56.4
Q 34.15 55.75 34.15 54.25 34.15 52.75 33.4 52.1 32.6 51.45 31.25 51.45
L 27.65 51.45 27.65 57.1 31.25 57.1
Q 32.6 57.1 33.4 56.4 Z"/>
</g>
</g>
</g>
</g>

<g id="Layer_2"/>
</svg>
