
<svg xmlns="http://www.w3.org/2000/svg" version="1.1" xmlns:xlink="http://www.w3.org/1999/xlink" preserveAspectRatio="none" x="0px" y="0px" width="100px" height="100px" viewBox="0 0 100 100">
<defs/>

<g id="Layer_18">
<g>
<g>
<g>
<path fill="#FFCC00" stroke="none" d="
M 92.4 89.5
Q 93 88.1 93 86.65
L 93 30.05 68.8 5.7 23.1 5.7
Q 21.6 5.7 20.25 6.3 18.9 6.85 17.9 7.85 16.85 8.9 16.3 10.2 15.75 11.55 15.75 13.05
L 15.75 38.8 8.4 38.8
Q 6.85 38.8 5.8 39.9 4.7 40.95 4.7 42.5
L 4.7 73.75
Q 4.7 75.25 5.8 76.35 6.85 77.45 8.4 77.45
L 15.75 77.45 15.75 86.65
Q 15.75 88.1 16.3 89.5 16.85 90.8 17.9 91.85 18.9 92.85 20.25 93.4 21.6 94 23.1 94
L 85.6 94
Q 87.1 94 88.5 93.4 89.8 92.85 90.85 91.85 91.85 90.8 92.4 89.5
M 86.6 31.45
L 87.45 32.35 87.45 86.65
Q 87.45 87.4 86.9 87.9 86.4 88.45 85.6 88.45
L 23.1 88.45
Q 22.35 88.45 21.8 87.9 21.25 87.4 21.25 86.65
L 21.25 77.45 76.45 77.45
Q 77.95 77.45 79.05 76.35 80.1 75.25 80.1 73.75
L 80.1 42.5
Q 80.1 40.95 79.05 39.9 77.95 38.8 76.45 38.8
L 21.25 38.8 21.25 13.05
Q 21.25 12.3 21.8 11.75 22.35 11.2 23.1 11.2
L 66.5 11.2 67.25 11.95 67.25 23
Q 67.25 24.7 67.9 26.3 68.55 27.8 69.7 29 70.9 30.15 72.4 30.8 73.95 31.45 75.7 31.45
L 86.6 31.45
M 59.3 48.65
Q 59.45 48.5 59.65 48.5
L 62.45 48.5
Q 62.55 48.5 62.7 48.55
L 62.7 48.6
Q 62.8 48.65 62.9 48.75
L 70.8 61.5 70.8 49
Q 70.8 48.8 70.95 48.65 71.1 48.5 71.3 48.5
L 73.6 48.5
Q 73.8 48.5 73.95 48.65 74.1 48.8 74.1 49
L 74.1 66.7
Q 74.1 66.9 73.95 67.05 73.8 67.2 73.6 67.2
L 70.9 67.2
Q 70.8 67.2 70.7 67.15
L 70.65 67.15
Q 70.55 67.05 70.5 66.95
L 62.4 54.1 62.4 66.7
Q 62.4 66.9 62.25 67.05 62.1 67.2 61.9 67.2
L 59.65 67.2
Q 59.45 67.2 59.3 67.05 59.15 66.9 59.15 66.7
L 59.15 49
Q 59.15 48.8 59.3 48.65
M 17.65 48.65
Q 17.8 48.5 18 48.5
L 20.4 48.5
Q 20.6 48.5 20.75 48.65 20.9 48.8 20.9 49
L 20.9 61.4
Q 20.9 63.8 20.15 65.15 18.85 67.65 15.05 67.65 12.85 67.65 11.35 66.5 9.7 65.3 9.7 62.25
L 9.7 61
Q 9.7 60.8 9.85 60.65 10 60.5 10.2 60.5
L 12.5 60.5
Q 12.7 60.5 12.85 60.65 13 60.8 13 61
L 13 62.25
Q 13 63.45 13.55 64.1 14.05 64.65 15.15 64.65 16.7 64.65 17.2 63.65 17.5 62.9 17.5 60.8
L 17.5 49
Q 17.5 48.8 17.65 48.65
M 36.95 54.55
Q 36.8 54.7 36.6 54.7
L 34.35 54.7
Q 34.15 54.7 34.05 54.6
L 34 54.6
Q 33.85 54.45 33.85 54.25 33.7 52.95 33.2 52.3 32.25 51.1 30 51.1 28.25 51.1 27.45 51.85 26.7 52.6 26.7 53.6 26.7 54.6 27.5 55.05 27.55 55.05 27.55 55.1 28.3 55.4 30.5 55.95
L 32.9 56.5 32.95 56.5
Q 34.8 57 35.75 57.75 37.6 59.15 37.6 61.75 37.6 65 35.3 66.4 33.1 67.7 30.2 67.7 26.7 67.7 24.8 65.9 22.8 64.1 22.85 61 22.85 60.8 23 60.65 23.15 60.5 23.35 60.5
L 25.6 60.5
Q 25.8 60.5 25.95 60.65 26.1 60.75 26.1 60.95 26.2 62.3 26.75 63.2
L 26.7 63.2
Q 27.75 64.7 30.35 64.7 31.55 64.7 32.5 64.35 32.55 64.35 32.6 64.35 34.25 63.7 34.25 62.15 34.25 61 33.6 60.45 32.75 59.9 31 59.5
L 28.7 59
Q 26.25 58.4 25.25 57.7 23.45 56.45 23.45 54 23.45 51.4 25.2 49.7 26.9 48.05 30.1 48.05 33 48.05 35 49.5 37.1 50.95 37.1 54.2 37.1 54.4 36.95 54.55
M 55.45 51.2
Q 57.35 53.65 57.35 57.55 57.35 61.7 55.2 64.45 52.7 67.7 48.1 67.7 43.75 67.7 41.25 64.85 41.2 64.8 41.2 64.75 39.05 62.05 39.05 57.95 39.05 54.15 40.95 51.5 43.4 48 48.15 48 53.1 48 55.45 51.2 Z"/>

<path fill="#FFCC33" stroke="none" d="
M 53.85 57.55
Q 53.85 54.75 52.45 52.95 52.4 52.95 52.35 52.9 50.85 51.15 48.25 51.15 45.7 51.15 44.15 52.9 42.55 54.65 42.55 58.1 42.55 60.85 43.95 62.75 45.35 64.6 48.35 64.6 51.25 64.6 52.5 62.55 52.55 62.5 52.6 62.5 53.85 60.35 53.85 57.55 Z"/>
</g>
</g>
</g>
</g>
</svg>
