
<svg xmlns="http://www.w3.org/2000/svg" version="1.1" xmlns:xlink="http://www.w3.org/1999/xlink" preserveAspectRatio="none" x="0px" y="0px" width="100px" height="100px" viewBox="0 0 100 100">
<defs>
<g id="Layer2_0_FILL">
<path fill="#FFFFFF" stroke="none" d="
M 83.05 50.4
Q 83.3 49.95 83.25 49.5 83.2 49 82.9 48.6
L 76.3 39.75
Q 75.45 38.6 75.2 37.2 75 35.75 75.45 34.4
L 79 23.95
Q 79.15 23.5 79.05 23 78.95 22.55 78.6 22.2 78.25 21.85 77.8 21.75 77.3 21.65 76.85 21.8
L 66.4 25.35
Q 65 25.8 63.6 25.6 62.2 25.35 61.05 24.5
L 52.2 17.9
Q 51.8 17.6 51.3 17.55 50.85 17.5 50.4 17.75 49.95 17.95 49.7 18.35 49.45 18.8 49.5 19.25
L 49.6 30.35
Q 49.65 31.75 49 33.05 48.35 34.3 47.15 35.15
L 38.15 41.5
Q 37.75 41.8 37.55 42.25 37.35 42.7 37.45 43.15 37.5 43.65 37.85 44 38.15 44.4 38.6 44.55
L 47.5 47.3 6.7 88.1
Q 5.45 89.35 5.45 91.1 5.45 92.85 6.7 94.1 7.3 94.7 8.1 95.05 8.9 95.35 9.7 95.35 10.55 95.35 11.3 95.05 12.1 94.7 12.75 94.1
L 53.5 53.3 56.25 62.2
Q 56.4 62.65 56.8 62.95 57.15 63.3 57.65 63.35 58.1 63.45 58.55 63.25 59 63.05 59.3 62.65
L 65.65 53.6
Q 66.5 52.45 67.75 51.8 69.05 51.15 70.45 51.2
L 81.55 51.3
Q 82 51.35 82.45 51.1 82.85 50.85 83.05 50.4
M 53.4 35.35
L 53.45 35.25
Q 54.6765625 32.87890625 54.6 30.3
L 54.55 25.9 58.05 28.5 58.05 28.5
Q 60.1720703125 30.071875 62.7 30.5 62.8205078125 30.5376953125 62.9 30.55 65.412890625 30.914453125 67.9 30.1
L 72.1 28.65 70.7 32.8 70.7 32.8
Q 69.8908203125 35.259765625 70.25 37.85 70.2603515625 37.9599609375 70.25 38.05 70.728125 40.6279296875 72.25 42.7
L 72.3 42.75 74.9 46.25 70.6 46.2
Q 70.5625 46.1974609375 70.5 46.2 67.9208984375 46.1232421875 65.5 47.3
L 65.45 47.35
Q 63.1755859375 48.54765625 61.6 50.6 61.5958984375 50.6751953125 61.55 50.7
L 59.05 54.3
Q 58.6603515625 43.1634765625 46.45 41.75
L 50 39.2 50.05 39.2
Q 52.2482421875 37.6595703125 53.4 35.35 Z"/>
</g>

<path id="Layer2_0_1_STROKES" stroke="#FFFFFF" stroke-width="5" stroke-linejoin="round" stroke-linecap="round" fill="none" d="
M 82.3 35.8
L 94.3 30.55
M 64.7 18.4
L 64.7 5.35
M 71.7 58.6
L 78.1 70
M 30.15 23.75
L 41.85 29.65"/>
</defs>

<g transform="matrix( 1, 0, 0, 1, 0,0) ">
<use xlink:href="#Layer2_0_FILL"/>

<use xlink:href="#Layer2_0_1_STROKES"/>
</g>
</svg>
