
<svg xmlns="http://www.w3.org/2000/svg" version="1.1" xmlns:xlink="http://www.w3.org/1999/xlink" preserveAspectRatio="none" x="0px" y="0px" width="100px" height="100px" viewBox="0 0 100 100">
<defs>
<path id="Layer3_0_1_STROKES" stroke="#FFFFFF" stroke-width="7" stroke-linejoin="round" stroke-linecap="round" fill="none" d="
M 73.75 58.9
Q 66.55 54.5 62 57.25 57.8 59.75 57.6 67.05 57.5 71.8 58.5 78 58.7 81.8 54.85 81.45 46.55 80.7 34.7 73.85 18.6 64.6 11.7 50.3 4.8 36 11.1 25.1 17.4 14.2 33.2 13.05 49 11.95 65.1 21.2 81.15 30.5 88.05 44.75 91.7 52.2 91.7 58.8 91.75 65.2 86.75 64.7 82.7 64.3 73.75 58.9 Z"/>

<path id="Layer3_0_2_STROKES" stroke="#FFFFFF" stroke-width="6" stroke-linejoin="round" stroke-linecap="round" fill="none" d="
M 49.1 55.95
Q 49.1 59.3 46.8 61.6 44.4 63.95 41.1 63.95 37.85 63.95 35.45 61.6 33.15 59.3 33.15 55.95 33.15 52.7 35.45 50.35 37.85 48 41.1 48 44.4 48 46.8 50.35 49.1 52.7 49.1 55.95 Z"/>
</defs>

<g transform="matrix( 1, 0, 0, 1, 0,0) ">
<use xlink:href="#Layer3_0_1_STROKES"/>

<use xlink:href="#Layer3_0_2_STROKES"/>
</g>
</svg>
