
<svg xmlns="http://www.w3.org/2000/svg" version="1.1" xmlns:xlink="http://www.w3.org/1999/xlink" preserveAspectRatio="none" x="0px" y="0px" width="100px" height="100px" viewBox="0 0 100 100">
<defs>
<g id="Layer1_0_FILL">
<path fill="#FFFFFF" stroke="none" d="
M 91.3 8.65
L 91.3 8.6
Q 89.65 7.1 87.8 6.35 85.7 5.45 83.55 5.45 81.4 5.45 79.5 6.35
L 79.4 6.35
Q 77.45 7.15 75.9 8.6
L 75.9 8.65 55.75 28.9
Q 55.25 29.25 54.65 29.25 53.9 29.25 53.5 28.8
L 51.45 26.75
Q 50.55 25.85 49.2 25.55
L 49.15 25.5 47.8 25.5 47.5 25.55
Q 46.25 25.85 45.4 26.75
L 45.3 26.75
Q 44.75 27.4 44.55 27.75 44.55 27.9 44.45 28
L 44.05 29.3 44 29.75 44 29.8
Q 44 30.05 44.2 30.65
L 44.5 31.75 44.55 31.8
Q 44.85 32.35 45.3 32.75
L 46.7 34.25
Q 47.15 34.7 47.15 35.35 47.15 35.95 46.65 36.45
L 11.35 71.7
Q 10.9 72.15 10.75 72.75
L 10.75 72.7 5.65 85.35
Q 5.1 86.75 5.25 88.6 5.3 90.15 6.3 91.7 7.25 93.05 8.8 93.85
L 8.85 93.85
Q 10.4 94.7 11.9 94.7 13.15 94.7 14.4 94.2
L 14.5 94.2 27.1 89.2 27.1 89.1
Q 27.75 88.85 28.1 88.45
L 63.45 53.25
Q 63.8 52.75 64.55 52.75 65.15 52.75 65.65 53.2
L 67.4 54.85 68.15 55.3
Q 69 55.8 70.05 55.8 70.75 55.8 71.3 55.6
L 71.3 55.55
Q 72.15 55.4 72.8 54.85
L 73.15 54.5
Q 73.95 53.75 74.15 52.75 74.35 51.85 74.3 51.05 74.3 50.65 74.15 50.25
L 74.15 50.2 73.9 49.5
Q 73.6 48.85 73.15 48.5
L 71.05 46.3
Q 70.55 45.8 70.55 45.2 70.55 44.65 71.05 44.05
L 91.3 23.9
Q 94.4 20.8 94.4 16.25 94.4 11.85 91.3 8.65
M 56.3 43.5
Q 60.7 47.9 60.7 48.1 60.7 48.5 59.7 49.5
L 25.25 83.9
Q 24.771875 84.63515625 24.05 84.75
L 14.65 88.5 14.65 88.55
Q 13.8015625 88.8640625 12.8 88.55 12.7755859375 88.5376953125 12.75 88.5 11.579296875 88.0853515625 11.3 87 11.009765625 86.17109375 11.3 85.25 11.3125 85.2498046875 11.3 85.2
L 15.15 75.55
Q 15.3919921875 74.9224609375 15.95 74.6
L 50.3 40.1
Q 51.3 39.1 51.7 39.1 51.9 39.1 56.3 43.5
M 86.9 16.3
Q 86.9333984375 17.5119140625 86.2 18.4 86.1220703125 18.4794921875 86 18.55
L 66.3 38.25 61.65 33.6 81.6 13.55
Q 83 12.45 84.85 13.25
L 85.75 13.75
Q 85.847265625 13.843359375 85.9 13.9 86.895703125 14.8884765625 86.9 16.25
L 86.9 16.3 Z"/>
</g>
</defs>

<g transform="matrix( 1, 0, 0, 1, 0,0) ">
<use xlink:href="#Layer1_0_FILL"/>
</g>
</svg>
