
<svg xmlns="http://www.w3.org/2000/svg" version="1.1" xmlns:xlink="http://www.w3.org/1999/xlink" preserveAspectRatio="none" x="0px" y="0px" width="100px" height="100px" viewBox="0 0 100 100">
<defs>
<g id="Layer0_0_FILL">
<path fill="#FFFFFF" stroke="none" d="
M 93.55 6.35
L 93.5 6.35
Q 91.5 4.3 89 3.3
L 89 3.35
Q 86.4 2.25 83.6 2.25 80.85 2.25 78.3 3.35
L 78.3 3.3
Q 75.7 4.3 73.75 6.35
L 54.65 25.45 53.65 24.5 53.75 24.5
Q 52.15 22.85 49.85 22.4 49.6 22.3 49.2 22.3 48.9 22.25 48.35 22.25 47.8 22.25 47.45 22.35
L 47.25 22.35
Q 47.1 22.35 46.95 22.4 44.65 22.85 43.15 24.45 43.1 24.45 43.1 24.5 42.25 25.2 41.75 26.35
L 41.65 26.55
Q 41.45 26.75 41.4 26.95 41.05 27.95 41 28.95 40.9 29.2 40.9 29.8 40.9 30.55 41.05 31.2 41.25 32.35 41.8 33.3
L 41.75 33.25
Q 42.25 34.3 43.05 35.05 43.1 35.05 43.15 35.1
L 43.35 35.3 9.15 69.45
Q 8.3 70.3 7.85 71.55
L 7.8 71.55 2.7 84.15
Q 1.8 86.45 2.05 88.9 2.3 91.35 3.7 93.45 5.1 95.5 7.35 96.7
L 7.3 96.7
Q 9.5 97.85 11.95 97.85 13.95 97.85 15.7 97.1
L 15.75 97.1 28.3 92.05 28.35 92.05
Q 29.5 91.55 30.4 90.75
L 30.4 90.7 64.55 56.5 65.3 57.2
Q 65.35 57.25 65.4 57.3 65.9 57.7 66.6 58.1 68.2 58.95 70.05 58.95
L 70.1 58.95
Q 71.2 58.95 72.2 58.65 72.25 58.65 72.3 58.65 73.75 58.2 74.85 57.25 74.9 57.2 74.95 57.15
L 75.35 56.75
Q 76.75 55.4 77.3 53.6
L 77.3 53.55
Q 77.7 52.05 77.55 50.75 77.5 50.1 77.35 49.45 77.2 48.8 76.75 48.05
L 76.75 48
Q 76.15 46.85 75.35 46.15
L 75.35 46.2 74.4 45.2 93.5 26.1
Q 97.6 22.05 97.6 16.25 97.6 10.45 93.55 6.35
M 91.3 8.55
L 91.3 8.6
Q 94.4 11.8 94.4 16.25 94.4 20.75 91.3 23.9
L 71.1 44.05
Q 70.6 44.55 70.6 45.15 70.6 45.8 71.1 46.3
L 73.2 48.45
Q 73.6 48.9 73.9 49.45
L 73.95 49.5
Q 74.1 49.85 74.2 50.15
L 74.2 50.2
Q 74.3 50.65 74.35 51.05 74.4 51.85 74.2 52.7 73.9 53.7 73.15 54.5
L 72.85 54.85
Q 72.2 55.35 71.35 55.55 71.3 55.55 71.3 55.6 70.7 55.8 70.1 55.8
L 70.05 55.8
Q 69.05 55.8 68.15 55.3 67.75 55.05 67.4 54.85
L 65.65 53.15
Q 65.2 52.7 64.55 52.7 63.85 52.7 63.45 53.2
L 28.15 88.45
Q 27.7166015625 88.8638671875 27.15 89.1
L 27.1 89.15 14.5 94.15 14.45 94.2
Q 13.3 94.65 11.95 94.65 10.35 94.65 8.85 93.85
L 8.8 93.85
Q 7.3 93.1 6.35 91.7 5.4 90.25 5.25 88.55 5.1 86.85 5.65 85.35
L 10.75 72.7 10.75 72.75
Q 10.95 72.1 11.4 71.7
L 46.65 36.4
Q 47.15 35.95 47.15 35.35 47.15 34.65 46.7 34.25
L 45.4 32.85
Q 45.35 32.8 45.35 32.75 44.85 32.35 44.6 31.8 44.6 31.75 44.55 31.7 44.3 31.15 44.2 30.65
L 44.2 30.6
Q 44.05 30.2 44.05 29.8
L 44.05 29.75
Q 44.1 29.5 44.1 29.3 44.2 28.7 44.4 28.15
L 44.4 28.1 44.45 28
Q 44.55 27.9 44.6 27.75 44.85 27.2 45.35 26.75 45.35 26.7 45.4 26.7 46.25 25.8 47.55 25.55
L 47.85 25.5
Q 48.1 25.5 48.35 25.45 48.4 25.45 48.5 25.45 48.7 25.5 48.95 25.5 49.05 25.5 49.15 25.5
L 49.2 25.55
Q 50.55 25.8 51.45 26.7
L 53.5 28.8
Q 54 29.25 54.65 29.25 55.25 29.25 55.75 28.85
L 75.95 8.6 75.95 8.55
Q 77.5 7.1 79.45 6.3
L 79.5 6.3
Q 81.45 5.45 83.6 5.45 85.75 5.45 87.8 6.3 89.7 7.1 91.3 8.55
M 59.05 48.8
Q 59.5 48.3 59.5 47.65 59.5 47.05 59.05 46.55
L 53.3 40.8
Q 52.85 40.35 52.2 40.35 51.55 40.35 51.05 40.8
L 16.5 75.4
Q 16.2 75.6 16.1 75.95
L 12.25 85.55
Q 12.05 86.15 12.3 86.75 12.5 87.35 13.15 87.6 13.75 87.8 14.3 87.6
L 23.9 83.75
Q 24.25 83.65 24.45 83.35
L 59.05 48.8
M 52.2 44.15
L 55.7 47.65 22.5 80.85 16.65 83.25 19 77.35 52.2 44.15 Z"/>

<path fill="#000000" stroke="none" d="
M 91.3 8.6
L 91.3 8.55
Q 89.7 7.1 87.8 6.3 85.75 5.45 83.6 5.45 81.45 5.45 79.5 6.3
L 79.45 6.3
Q 77.5 7.1 75.95 8.55
L 75.95 8.6 55.75 28.85
Q 55.25 29.25 54.65 29.25 54 29.25 53.5 28.8
L 51.45 26.7
Q 50.55 25.8 49.2 25.55
L 49.15 25.5
Q 49.05 25.5 48.95 25.5 48.7 25.5 48.5 25.45 48.4 25.45 48.35 25.45 48.1 25.5 47.85 25.5
L 47.55 25.55
Q 46.25 25.8 45.4 26.7 45.35 26.7 45.35 26.75 44.85 27.2 44.6 27.75 44.55 27.9 44.45 28
L 44.4 28.1 44.4 28.15
Q 44.2 28.7 44.1 29.3 44.1 29.5 44.05 29.75
L 44.05 29.8
Q 44.05 30.2 44.2 30.6
L 44.2 30.65
Q 44.3 31.15 44.55 31.7 44.6 31.75 44.6 31.8 44.85 32.35 45.35 32.75 45.35 32.8 45.4 32.85
L 46.7 34.25
Q 47.15 34.65 47.15 35.35 47.15 35.95 46.65 36.4
L 11.4 71.7
Q 10.95 72.1 10.75 72.75
L 10.75 72.7 5.65 85.35
Q 5.1 86.85 5.25 88.55 5.4 90.25 6.35 91.7 7.3 93.1 8.8 93.85
L 8.85 93.85
Q 10.35 94.65 11.95 94.65 13.3 94.65 14.45 94.2
L 14.5 94.15 27.1 89.15 27.15 89.1
Q 27.7166015625 88.8638671875 28.15 88.45
L 63.45 53.2
Q 63.85 52.7 64.55 52.7 65.2 52.7 65.65 53.15
L 67.4 54.85
Q 67.75 55.05 68.15 55.3 69.05 55.8 70.05 55.8
L 70.1 55.8
Q 70.7 55.8 71.3 55.6 71.3 55.55 71.35 55.55 72.2 55.35 72.85 54.85
L 73.15 54.5
Q 73.9 53.7 74.2 52.7 74.4 51.85 74.35 51.05 74.3 50.65 74.2 50.2
L 74.2 50.15
Q 74.1 49.85 73.95 49.5
L 73.9 49.45
Q 73.6 48.9 73.2 48.45
L 71.1 46.3
Q 70.6 45.8 70.6 45.15 70.6 44.55 71.1 44.05
L 91.3 23.9
Q 94.4 20.75 94.4 16.25 94.4 11.8 91.3 8.6
M 59.5 47.65
Q 59.5 48.3 59.05 48.8
L 24.45 83.35
Q 24.25 83.65 23.9 83.75
L 14.3 87.6
Q 13.75 87.8 13.15 87.6 12.5 87.35 12.3 86.75 12.05 86.15 12.25 85.55
L 16.1 75.95
Q 16.2 75.6 16.5 75.4
L 51.05 40.8
Q 51.55 40.35 52.2 40.35 52.85 40.35 53.3 40.8
L 59.05 46.55
Q 59.5 47.05 59.5 47.65 Z"/>
</g>
</defs>

<g transform="matrix( 1, 0, 0, 1, 0,0) ">
<use xlink:href="#Layer0_0_FILL"/>
</g>
</svg>
