
<svg xmlns="http://www.w3.org/2000/svg" version="1.1" xmlns:xlink="http://www.w3.org/1999/xlink" preserveAspectRatio="none" x="0px" y="0px" width="100px" height="100px" viewBox="0 0 100 100">
<defs>
<g id="Layer1_0_FILL">
<path fill="#FFFFFF" fill-opacity="0.24705882352941178" stroke="none" d="
M -21.85 21.9
L -21.85 0.05 -43.8 0.05 -43.8 21.95 -21.9 21.95 -21.85 21.9
M -43.8 -43.8
L -43.8 -21.85 -21.85 -21.85 -21.85 -43.8 -43.8 -43.8
M 0.05 0.05
L 0.05 -21.85 -21.85 -21.85 -21.85 0.05 0.05 0.05
M 0.05 43.85
L 0.05 21.95 -21.85 21.95 -21.85 22 -21.85 43.85 0.05 43.85
M 0.05 43.85
L 21.95 43.85 21.95 21.95 0.05 21.95 0.05 43.85
M 43.85 21.95
L 43.85 0.05 21.95 0.05 21.95 21.95 43.85 21.95
M 0.05 -21.85
L 0.05 -43.8 -21.85 -43.8 -21.85 -21.85 0.05 -21.85
M 21.95 -21.9
L 22 -21.85 43.85 -21.85 43.85 -43.8 21.95 -43.8 21.95 -21.9
M 21.95 -21.85
L 21.9 -21.85 0.05 -21.85 0.05 0.05 21.95 0.05 21.95 -21.85
M 21.9 -21.85
L 21.95 -21.9 21.95 -43.8 0.05 -43.8 0.05 -21.85 21.9 -21.85 Z"/>
</g>

<path id="Layer1_0_1_STROKES" stroke="#000000" stroke-width="3" stroke-linejoin="round" stroke-linecap="round" fill="none" d="
M 21.95 -21.85
L 21.95 -21.9 21.9 -21.85 21.95 -21.85 22 -21.85 21.95 -21.9 21.95 -43.8 0.05 -43.8 0.05 -21.85 21.9 -21.85
M 21.95 -43.8
L 43.85 -43.8 43.85 -21.85 43.85 0.05 43.85 21.95 43.85 43.85 21.95 43.85 0.05 43.85 -21.85 43.85 -43.8 43.85 -43.8 21.95 -43.8 0.05 -43.8 -21.85 -43.8 -43.8 -21.85 -43.8 0.05 -43.8
M 22 -21.85
L 43.85 -21.85
M 0.05 0.05
L 21.95 0.05 21.95 -21.85
M 43.85 21.95
L 21.95 21.95 21.95 43.85
M 0.05 21.95
L 21.95 21.95 21.95 0.05 43.85 0.05
M 0.05 43.85
L 0.05 21.95 0.05 0.05
M 0.05 21.95
L -21.85 21.95 -21.85 22 -21.85 43.85
M 0.05 0.05
L 0.05 -21.85 -21.85 -21.85 -21.85 0.05 0.05 0.05 Z
M -21.85 -43.8
L -21.85 -21.85 -43.8 -21.85
M -21.85 0.05
L -21.85 21.9 -21.85 21.95 -21.9 21.95 -21.85 22
M -43.8 21.95
L -21.9 21.95 -21.85 21.9
M -21.85 0.05
L -43.8 0.05"/>
</defs>

<g transform="matrix( 1, 0, 0, 1, 49.75,50.35) ">
<g transform="matrix( 1, 0, 0, 1, 0,0) ">
<use xlink:href="#Layer1_0_FILL"/>

<use xlink:href="#Layer1_0_1_STROKES"/>
</g>
</g>
</svg>
