
<svg xmlns="http://www.w3.org/2000/svg" version="1.1" xmlns:xlink="http://www.w3.org/1999/xlink" preserveAspectRatio="none" x="0px" y="0px" width="100px" height="100px" viewBox="0 0 100 100">
<defs/>

<g id="Layer_16">
<g>
<g>
<g>
<path fill="#DD3B19" stroke="none" d="
M 92.4 89.5
Q 93 88.1 93 86.65
L 93 30.05 68.8 5.7 23.1 5.7
Q 21.6 5.7 20.25 6.3 18.9 6.85 17.9 7.85 16.85 8.9 16.3 10.2 15.75 11.55 15.75 13.05
L 15.75 38.8 8.4 38.8
Q 6.85 38.8 5.8 39.9 4.7 40.95 4.7 42.5
L 4.7 73.75
Q 4.7 75.25 5.8 76.35 6.85 77.45 8.4 77.45
L 15.75 77.45 15.75 86.65
Q 15.75 88.1 16.3 89.5 16.85 90.8 17.9 91.85 18.9 92.85 20.25 93.4 21.6 94 23.1 94
L 85.6 94
Q 87.1 94 88.5 93.4 89.8 92.85 90.85 91.85 91.85 90.8 92.4 89.5
M 86.6 31.45
L 87.45 32.35 87.45 86.65
Q 87.45 87.4 86.9 87.9 86.4 88.45 85.6 88.45
L 23.1 88.45
Q 22.35 88.45 21.8 87.9 21.25 87.4 21.25 86.65
L 21.25 77.45 76.45 77.45
Q 77.95 77.45 79.05 76.35 80.1 75.25 80.1 73.75
L 80.1 42.5
Q 80.1 40.95 79.05 39.9 77.95 38.8 76.45 38.8
L 21.25 38.8 21.25 13.05
Q 21.25 12.3 21.8 11.75 22.35 11.2 23.1 11.2
L 66.5 11.2 67.25 11.95 67.25 23
Q 67.25 24.7 67.9 26.3 68.55 27.8 69.7 29 70.9 30.15 72.4 30.8 73.95 31.45 75.7 31.45
L 86.6 31.45
M 49.25 46.95
Q 49.5 46.95 49.75 47.2 49.85 47.3 49.85 47.55
L 49.85 69.25
Q 49.85 69.5 49.75 69.75 49.5 69.85 49.25 69.85
L 45.95 69.85
Q 45.8 69.85 45.7 69.85 45.55 69.75 45.45 69.6
L 35.6 53.85 35.6 69.25
Q 35.6 69.5 35.5 69.75 35.25 69.85 35 69.85
L 32.1 69.85
Q 31.85 69.85 31.7 69.75 31.45 69.5 31.45 69.25
L 31.45 47.55
Q 31.45 47.3 31.7 47.2 31.85 46.95 32.1 46.95
L 35.6 46.95
Q 35.75 46.95 36 47.05 36.1 47.05 36.25 47.3
L 45.8 62.8 45.8 47.55
Q 45.8 47.3 46.05 47.2 46.2 46.95 46.45 46.95
L 49.25 46.95
M 63.2 46.3
Q 66.25 46.3 68.75 47.7 72.15 49.3 72.9 54 72.9 54.25 72.9 54.35 72.8 54.5 72.65 54.6 72.4 54.75 72.3 54.75
L 69.4 54.75
Q 69.15 54.75 69 54.6 68.75 54.5 68.75 54.25 68.4 52.1 67 51.35
L 66.85 51.2
Q 65.35 50.2 63.1 50.2 60.45 50.2 58.7 52.35 56.8 54.35 56.8 58.5 56.8 62.2 58.3 64.45
L 58.3 64.55
Q 59.8 66.7 63.2 66.7 65.85 66.7 67.65 65.2 69.15 63.7 69.25 60.65
L 63.1 60.65
Q 62.85 60.65 62.7 60.55 62.45 60.3 62.45 60.05
L 62.45 57.65
Q 62.45 57.4 62.7 57.25 62.85 57 63.1 57
L 72.65 57
Q 72.9 57 73.2 57.25 73.3 57.4 73.3 57.65
L 73.3 69.25
Q 73.3 69.5 73.2 69.75 72.9 69.85 72.65 69.85
L 70.8 69.85
Q 70.55 69.85 70.4 69.75 70.3 69.6 70.15 69.5
L 69.75 67.7
Q 68.65 68.85 67.75 69.35 65.75 70.5 62.6 70.5 58.55 70.5 55.65 67.85 52.5 64.45 52.5 58.75 52.5 53 55.65 49.7
L 55.55 49.7
Q 58.55 46.3 63.2 46.3
M 11.9 47.2
Q 12.05 46.95 12.3 46.95
L 22 46.95
Q 25 46.95 27.05 48.8 28.95 50.6 28.95 53.75 28.95 56.5 27.3 58.5
L 27.3 58.65
Q 25.55 60.65 22 60.65
L 15.8 60.65 15.8 69.25
Q 15.8 69.5 15.7 69.75 15.45 69.85 15.2 69.85
L 12.3 69.85
Q 12.05 69.85 11.9 69.75 11.65 69.5 11.65 69.25
L 11.65 47.55
Q 11.65 47.3 11.9 47.2
M 23.4 51.2
Q 22.5 50.7 21 50.7
L 15.8 50.7 15.8 57 21 57
Q 22.65 57 23.75 56.25 24.75 55.5 24.75 53.75 24.75 51.85 23.4 51.2 Z"/>
</g>
</g>
</g>
</g>
</svg>
