
<svg xmlns="http://www.w3.org/2000/svg" version="1.1" xmlns:xlink="http://www.w3.org/1999/xlink" preserveAspectRatio="none" x="0px" y="0px" width="100px" height="100px" viewBox="0 0 100 100">
<defs/>

<g id="Layer_11">
<g>
<g>
<g>
<path fill="#FFFFFF" stroke="none" d="
M 64.45 68.15
L 57.15 67.3 56.9 75.25 64.05 76.05 64.45 68.15
M 42.55 65.65
L 42.25 73.5 49.5 74.35 49.85 66.45 42.55 65.65
M 79 69.9
L 71.75 69 71.35 76.85 78.55 77.75 79 69.9
M 12.15 65.8
L 6.7 61 1.9 67.25 7.4 72.1 12.15 65.8
M 16.95 59.55
L 21.65 53.25 16.2 48.4 11.45 54.7 16.95 59.55
M 26.45 47
L 31.1 40.7 25.65 35.85 20.95 42.1 26.45 47
M 35.15 23.25
L 30.35 29.55 35.9 34.4 40.65 28.1 35.15 23.25
M 70.4 36.4
L 74.05 29.35 67.8 25.75 64.1 32.75 70.4 36.4
M 51.55 25.4
L 57.8 29.1 61.5 22.1 55.25 18.35 51.55 25.4
M 45.3 21.8
L 49 14.8 42.7 11.1 39 18.2 45.3 21.8
M 84.95 65
L 89.55 58.6 84 53.8 79.3 60.25 84.95 65
M 98.85 45.8
L 93.2 41 88.65 47.45 94.2 52.2 98.85 45.8
M 83 43.75
L 86.6 36.6 80.35 32.95 76.7 40.05 83 43.75 Z"/>
</g>
</g>
</g>
</g>
</svg>
