
<svg xmlns="http://www.w3.org/2000/svg" version="1.1" xmlns:xlink="http://www.w3.org/1999/xlink" preserveAspectRatio="none" x="0px" y="0px" width="100px" height="100px" viewBox="0 0 100 100">
<defs/>

<g id="psd_svg">
<g>
<g>
<g>
<path fill="#3676F4" stroke="none" d="
M 88.5 93.4
Q 89.8 92.85 90.85 91.85 91.85 90.8 92.4 89.5 93 88.1 93 86.65
L 93 30.05 68.8 5.7 23.1 5.7
Q 21.6 5.7 20.25 6.3 18.9 6.85 17.9 7.85 16.85 8.9 16.3 10.2 15.75 11.55 15.75 13.05
L 15.75 38.8 8.4 38.8
Q 6.85 38.8 5.8 39.9 4.7 40.95 4.7 42.5
L 4.7 73.75
Q 4.7 75.25 5.8 76.35 6.85 77.45 8.4 77.45
L 15.75 77.45 15.75 86.65
Q 15.75 88.1 16.3 89.5 16.85 90.8 17.9 91.85 18.9 92.85 20.25 93.4 21.6 94 23.1 94
L 85.6 94
Q 87.1 94 88.5 93.4
M 86.6 31.45
L 87.45 32.35 87.45 86.65
Q 87.45 87.4 86.9 87.9 86.4 88.45 85.6 88.45
L 23.1 88.45
Q 22.35 88.45 21.8 87.9 21.25 87.4 21.25 86.65
L 21.25 77.45 76.45 77.45
Q 77.95 77.45 79.05 76.35 80.1 75.25 80.1 73.75
L 80.1 42.5
Q 80.1 40.95 79.05 39.9 77.95 38.8 76.45 38.8
L 21.25 38.8 21.25 13.05
Q 21.25 12.3 21.8 11.75 22.35 11.2 23.1 11.2
L 66.5 11.2 67.25 11.95 67.25 23
Q 67.25 24.7 67.9 26.3 68.55 27.8 69.7 29 70.9 30.15 72.4 30.8 73.95 31.45 75.7 31.45
L 86.6 31.45
M 41.2 45.95
Q 45.45 45.95 47.75 47.7 50.25 49.55 50.6 53.4
L 46.75 53.4
Q 46.25 51.25 44.9 50.3 43.65 49.3 41 49.3 38.75 49.3 37.6 49.95 36.15 50.7 36.15 52.4 36.15 53.95 37.8 54.8 38.6 55.25 41.85 56.25 46.5 57.7 48.05 58.6 51.1 60.4 51.1 63.7 51.1 66.9 48.65 68.7 46.1 70.55 41.6 70.55 37.2 70.55 34.8 68.85 31.8 66.75 31.55 62.25
L 35.4 62.25
Q 35.8 65 37.3 66.1 38.75 67.15 41.6 67.15 44.2 67.15 45.7 66.25 46.45 65.8 46.85 65.25 47.25 64.65 47.25 63.9 47.25 62.05 45 60.95 44.25 60.55 40.4 59.4 36 57.95 35 57.4 32.25 55.75 32.25 52.65 32.25 49.45 34.9 47.7 37.35 45.95 41.2 45.95
M 54.4 46.45
L 63.05 46.45
Q 68.8 46.45 71.75 49.6 74.6 52.6 74.6 58.25 74.6 63.85 71.75 66.9 68.8 70.05 63.05 70.05
L 54.4 70.05 54.4 46.45
M 21 46.45
Q 25.25 46.45 27.4 48.25 29.55 50.05 29.55 53.7 29.55 61 20.9 61
L 15.05 61 15.05 70.05 11.2 70.05 11.2 46.45 21 46.45
M 24.45 50.65
Q 23.25 49.75 20.7 49.75
L 15.05 49.75 15.05 57.7 20.7 57.7
Q 23.2 57.7 24.45 56.75 25.65 55.85 25.65 53.7 25.65 51.6 24.45 50.65
M 68.8 64.7
Q 70.75 62.6 70.75 58.25 70.75 53.75 68.8 51.75 66.75 49.75 62.35 49.75
L 58.3 49.75 58.3 66.75 62.35 66.75
Q 66.75 66.75 68.8 64.7 Z"/>
</g>
</g>
</g>
</g>
</svg>
