
<svg xmlns="http://www.w3.org/2000/svg" version="1.1" xmlns:xlink="http://www.w3.org/1999/xlink" preserveAspectRatio="none" x="0px" y="0px" width="30px" height="30px" viewBox="0 0 100 100">
<defs/>

<g id="Layer_13">
<g>
<g>
<g>
<path fill="#333333" stroke="none" d="
M 26.8 21.65
Q 26.6 21.65 26.4 21.65
L 26.4 8.4 8.15 26.7 26.4 44.95 26.4 31.65
Q 26.6 31.65 26.8 31.65 44 31.65 56.15 43.8 68.3 55.95 68.3 73.15 68.3 73.4 68.3 73.6
L 54.95 73.6 73.2 91.9 91.5 73.6 78.3 73.6
Q 78.3 73.4 78.3 73.15 78.3 51.85 63.2 36.75 48.1 21.65 26.8 21.65 Z"/>
</g>
</g>

<g>
<path stroke="#FFFFFF" stroke-width="3" stroke-linejoin="round" stroke-linecap="round" fill="none" d="
M 54.95 73.6
L 73.2 91.9 91.5 73.6 78.3 73.6
Q 78.3 73.4 78.3 73.15 78.3 51.85 63.2 36.75 48.1 21.65 26.8 21.65 26.6 21.65 26.4 21.65
L 26.4 8.4 8.15 26.7 26.4 44.95 26.4 31.65
Q 26.6 31.65 26.8 31.65 44 31.65 56.15 43.8 68.3 55.95 68.3 73.15 68.3 73.4 68.3 73.6
L 54.95 73.6 Z"/>
</g>
</g>
</g>

<g id="Layer_14"/>
</svg>
