
<svg xmlns="http://www.w3.org/2000/svg" version="1.1" xmlns:xlink="http://www.w3.org/1999/xlink" preserveAspectRatio="none" x="0px" y="0px" width="100px" height="100px" viewBox="0 0 100 100">
<defs>
<g id="Layer1_0_FILL">
<path fill="#FFFFFF" stroke="none" d="
M 60 80
L 60 85 70 85 70 80 60 80
M 55 85
L 55 80 45 80 45 85 55 85
M 40 85
L 40 80 30 80 30 85 40 85
M 20 75
L 15 75 15 82.5
Q 14.9962890625 83.5390625 15.7 84.25 16.4607421875 85.003515625 17.5 85
L 25 85 25 80 20 80 20 75
M 20 60
L 15 60 15 70 20 70 20 60
M 20 45
L 15 45 15 55 20 55 20 45
M 20 30
L 15 30 15 40 20 40 20 30
M 30 15
L 30 20 40 20 40 15 30 15
M 25 20
L 25 15 17.5 15
Q 16.4607421875 14.9962890625 15.7 15.7 14.9962890625 16.4607421875 15 17.5
L 15 25 20 25 20 20 25 20
M 45 15
L 45 20 55 20 55 15 45 15
M 70 20
L 70 15 60 15 60 20 70 20
M 85 55
L 85 45 80 45 80 55 85 55
M 82.5 85
Q 83.5390625 85.003515625 84.25 84.25 85.003515625 83.5390625 85 82.5
L 85 75 80 75 80 80 75 80 75 85 82.5 85
M 85 70
L 85 60 80 60 80 70 85 70
M 85 40
L 85 30 80 30 80 40 85 40
M 85 17.5
Q 85.003515625 16.4607421875 84.25 15.7 83.5390625 14.9962890625 82.5 15
L 75 15 75 20 80 20 80 25 85 25 85 17.5 Z"/>
</g>
</defs>

<g transform="matrix( 1, 0, 0, 1, 0,0) ">
<use xlink:href="#Layer1_0_FILL"/>
</g>
</svg>
