
<svg xmlns="http://www.w3.org/2000/svg" version="1.1" xmlns:xlink="http://www.w3.org/1999/xlink" preserveAspectRatio="none" x="0px" y="0px" width="100px" height="100px" viewBox="0 0 100 100">
<defs/>

<g id="FlashAICB">
<g>
<g>
<g>
<path fill="#FFFFFF" stroke="none" d="
M 85.05 65.6
Q 83.5 64.1 81.55 63.25 79.5 62.4 77.25 62.4
L 59.6 62.4
Q 59.8 55.45 61.6 48.9 63.45 42.35 66.75 36.65 67.95 34.6 68.55 32.25 69.15 29.9 69.15 27.5 69.15 23.8 67.75 20.45 66.35 17.05 63.7 14.45 61.1 11.85 57.65 10.45 54.3 9.1 50.6 9.15 46.85 9.2 43.45 10.7 40.2 12.15 37.7 14.75 35.2 17.3 33.85 20.6 32.45 24.05 32.5 27.75 32.5 30 33.05 32.2 33.65 34.4 34.75 36.35 38.1 42.5 40 49.1 41.85 55.75 42.05 62.4
L 24.4 62.4
Q 22.15 62.4 20.1 63.25 18.15 64.1 16.6 65.6 15.05 67.15 14.25 69.15 13.4 71.15 13.4 73.4
L 13.4 83.65 19.85 83.65 19.85 90.1 81.8 90.1 81.8 83.65 88.25 83.65 88.25 73.4
Q 88.25 71.15 87.4 69.15 86.6 67.15 85.05 65.6
M 82.45 68.2
Q 83.45 69.25 84.05 70.55 84.6 71.9 84.6 73.4
L 84.6 80 17.05 80 17.05 73.4
Q 17.05 71.9 17.6 70.55 18.2 69.25 19.2 68.2 20.2 67.2 21.55 66.65 22.9 66.05 24.4 66.05
L 77.25 66.05
Q 78.75 66.05 80.15 66.65 81.45 67.2 82.45 68.2
M 61.1 17.05
Q 63.25 19.2 64.4 21.85 65.5 24.55 65.5 27.5 65.5 29.45 65 31.3 64.5 33.2 63.55 34.8 60 41 58.05 47.95 56.1 55 55.9 62.4
L 45.7 62.4
Q 45.55 55.25 43.55 48.2 41.55 41.1 38 34.6 37.1 33.05 36.65 31.25 36.15 29.5 36.15 27.7 36.1 24.75 37.2 22 38.3 19.35 40.3 17.3 42.3 15.25 44.9 14.1 47.65 12.85 50.65 12.8 53.6 12.8 56.3 13.9 59 15 61.1 17.05
M 23.5 86.4
L 23.5 83.65 78.15 83.65 78.15 86.4 23.5 86.4 Z"/>
</g>
</g>

<g>
<path stroke="#FFFFFF" stroke-width="2" stroke-linejoin="round" stroke-linecap="round" fill="none" d="
M 88.25 73.4
Q 88.25 71.15 87.4 69.15 86.6 67.15 85.05 65.6 83.5 64.1 81.55 63.25 79.5 62.4 77.25 62.4
L 59.6 62.4
Q 59.8 55.45 61.6 48.9 63.45 42.35 66.75 36.65 67.95 34.6 68.55 32.25 69.15 29.9 69.15 27.5 69.15 23.8 67.75 20.45 66.35 17.05 63.7 14.45 61.1 11.85 57.65 10.45 54.3 9.1 50.6 9.15 46.85 9.2 43.45 10.7 40.2 12.15 37.7 14.75 35.2 17.3 33.85 20.6 32.45 24.05 32.5 27.75 32.5 30 33.05 32.2 33.65 34.4 34.75 36.35 38.1 42.5 40 49.1 41.85 55.75 42.05 62.4
L 24.4 62.4
Q 22.15 62.4 20.1 63.25 18.15 64.1 16.6 65.6 15.05 67.15 14.25 69.15 13.4 71.15 13.4 73.4
L 13.4 83.65 19.85 83.65 19.85 90.1 81.8 90.1 81.8 83.65 88.25 83.65 88.25 73.4 Z
M 84.6 80
L 17.05 80 17.05 73.4
Q 17.05 71.9 17.6 70.55 18.2 69.25 19.2 68.2 20.2 67.2 21.55 66.65 22.9 66.05 24.4 66.05
L 77.25 66.05
Q 78.75 66.05 80.15 66.65 81.45 67.2 82.45 68.2 83.45 69.25 84.05 70.55 84.6 71.9 84.6 73.4
L 84.6 80 Z
M 38 34.6
Q 37.1 33.05 36.65 31.25 36.15 29.5 36.15 27.7 36.1 24.75 37.2 22 38.3 19.35 40.3 17.3 42.3 15.25 44.9 14.1 47.65 12.85 50.65 12.8 53.6 12.8 56.3 13.9 59 15 61.1 17.05 63.25 19.2 64.4 21.85 65.5 24.55 65.5 27.5 65.5 29.45 65 31.3 64.5 33.2 63.55 34.8 60 41 58.05 47.95 56.1 55 55.9 62.4
L 45.7 62.4
Q 45.55 55.25 43.55 48.2 41.55 41.1 38 34.6 Z"/>
</g>
</g>
</g>
</svg>
