
<svg xmlns="http://www.w3.org/2000/svg" version="1.1" xmlns:xlink="http://www.w3.org/1999/xlink" preserveAspectRatio="none" x="0px" y="0px" width="100px" height="100px" viewBox="0 0 100 100">
<defs/>

<g id="Text">
<g>
<g>
<g>
<path fill="#FFFFFF" stroke="none" d="
M 80 20
L 67.45 20 62.45 20 38.25 20 33.25 20 20 20 20 35 25 35 25 30 30 30 30 25 33.25 25 38.25 25 45 25 45 36.25 45 41.25 45 80 40.05 80 35 80 35 85 40.05 85 45.05 85 57.45 85 62.45 85 65 85 65 80 62.45 80 57.45 80 55 80 55 41.25 55 36.25 55 25 62.45 25 67.45 25 70 25 70 30 75 30 75 35 80 35 80 20 Z"/>
</g>
</g>
</g>
</g>

<g id="Layer_2"/>
</svg>
