
<svg xmlns="http://www.w3.org/2000/svg" version="1.1" xmlns:xlink="http://www.w3.org/1999/xlink" preserveAspectRatio="none" x="0px" y="0px" width="100px" height="100px" viewBox="0 0 100 100">
<defs/>

<g id="Layer_4">
<g>
<g>
<g>
<path fill="#FFFFFF" stroke="none" d="
M 36.5 58.55
L 10.05 85 15.5 90.45 41.95 64 36.5 58.55
M 41.3 34.6
L 41.3 42.3 78.7 42.3 78.7 34.6 63.85 34.6 41.3 34.6 Z"/>
</g>
</g>

<g>
<path stroke="#FFFFFF" stroke-width="4" stroke-linejoin="round" stroke-linecap="round" fill="none" d="
M 89.9 38.25
Q 89.9 50.65 81.15 59.4 72.4 68.15 60 68.15 53.2341796875 68.15 47.55 65.55 42.82578125 63.37578125 38.85 59.4 35.4162109375 55.9662109375 33.325 51.975 30.1 45.7837890625 30.1 38.25 30.1 25.85 38.85 17.1 47.6 8.35 60 8.35 72.4 8.35 81.15 17.1 89.9 25.85 89.9 38.25 Z
M 63.85 34.6
L 78.7 34.6 78.7 42.3 41.3 42.3 41.3 34.6 63.85 34.6 Z
M 10.05 85
L 36.5 58.55 41.95 64 15.5 90.45 10.05 85 Z"/>
</g>
</g>
</g>
</svg>
